<?xml version="1.0" encoding="utf-8"?>
<!-- Generator: Adobe Illustrator 19.0.0, SVG Export Plug-In . SVG Version: 6.00 Build 0)  -->
<svg version="1.1" id="Calque_1" xmlns="http://www.w3.org/2000/svg" xmlns:xlink="http://www.w3.org/1999/xlink" x="0px" y="0px"
	 viewBox="-282 405.9 30 30" style="enable-background:new -282 405.9 30 30;" xml:space="preserve">
<style type="text/css">
	.st0{fill:#F5F5F5;}
</style>
<text transform="matrix(1 0 0 1 -463.3089 863.67)" style="fill:#3B3B3B; font-family:'FontAwesome'; font-size:18px;"></text>
<g>
	<path class="st0" d="M-266.5,409c4.5,0,8.6,3.1,8.6,7.8c0,4.4-2.3,9.4-7.3,9.4c-1.2,0-2.7-0.6-3.3-1.7c-1.1,4.3-1,4.9-3.4,8.2
		l-0.2,0.1l-0.1-0.1c-0.1-0.9-0.2-1.8-0.2-2.7c0-2.9,1.3-7.1,2-9.9c-0.4-0.7-0.5-1.6-0.5-2.4c0-1.4,1-3.3,2.6-3.3
		c1.2,0,1.8,0.9,1.8,2c0,1.9-1.3,3.6-1.3,5.4c0,1.2,1,2.1,2.2,2.1c3.3,0,4.3-4.7,4.3-7.3c0-3.4-2.4-5.2-5.6-5.2
		c-3.8,0-6.7,2.7-6.7,6.5c0,1.8,1.1,2.8,1.1,3.2c0,0.4-0.3,1.7-0.7,1.7c-0.1,0-0.2,0-0.2,0c-2-0.6-2.8-3.3-2.8-5.2
		C-276.2,412.3-271.3,409-266.5,409z"/>
</g>
</svg>
