<?xml version="1.0" encoding="utf-8"?>
<!-- Generator: Adobe Illustrator 19.0.0, SVG Export Plug-In . SVG Version: 6.00 Build 0)  -->
<svg version="1.1" id="Calque_1" xmlns="http://www.w3.org/2000/svg" xmlns:xlink="http://www.w3.org/1999/xlink" x="0px" y="0px"
	 viewBox="-282 405.9 30 30" style="enable-background:new -282 405.9 30 30;" xml:space="preserve">
<style type="text/css">
	.st0{fill:#3B3B3B;}
</style>
<text transform="matrix(1 0 0 1 -255.2617 457.78)" class="st0" style="font-family:'FontAwesome'; font-size:18px; letter-spacing:1;"></text>
<g>
	<path class="st0" d="M-256,415.2c0,0.2,0,0.5,0,0.7c0,7.5-5.7,16.2-16.2,16.2c-3.2,0-6.2-0.9-8.7-2.6c0.5,0.1,0.9,0.1,1.4,0.1
		c2.7,0,5.1-0.9,7.1-2.4c-2.5-0.1-4.6-1.7-5.3-3.9c0.4,0.1,0.7,0.1,1.1,0.1c0.5,0,1-0.1,1.5-0.2c-2.6-0.5-4.6-2.8-4.6-5.6
		c0,0,0-0.1,0-0.1c0.8,0.4,1.6,0.7,2.6,0.7c-1.5-1-2.5-2.8-2.5-4.7c0-1.1,0.3-2,0.8-2.9c2.8,3.5,7,5.7,11.7,6
		c-0.1-0.4-0.1-0.9-0.1-1.3c0-3.1,2.5-5.7,5.7-5.7c1.6,0,3.1,0.7,4.2,1.8c1.3-0.2,2.5-0.7,3.6-1.4c-0.4,1.3-1.3,2.4-2.5,3.1
		c1.1-0.1,2.3-0.4,3.3-0.9C-253.9,413.4-254.9,414.4-256,415.2z"/>
</g>
<text transform="matrix(1 0 0 1 -181.3089 457.78)" class="st0" style="font-family:'FontAwesome'; font-size:18px; letter-spacing:1;"></text>
</svg>
