<?xml version="1.0" encoding="utf-8"?>
<!-- Generator: Adobe Illustrator 19.0.0, SVG Export Plug-In . SVG Version: 6.00 Build 0)  -->
<svg version="1.1" id="Calque_1" xmlns="http://www.w3.org/2000/svg" xmlns:xlink="http://www.w3.org/1999/xlink" x="0px" y="0px"
	 viewBox="-282 405.9 30 30" style="enable-background:new -282 405.9 30 30;" xml:space="preserve">
<style type="text/css">
	.st0{fill:#F5F5F5;}
</style>
<text transform="matrix(1 0 0 1 -537.2617 863.67)" style="fill:#3B3B3B; font-family:'FontAwesome'; font-size:18px;"></text>
<g>
	<path class="st0" d="M-256.7,415.5c0,0.2,0,0.5,0,0.7c0,7.1-5.4,15.3-15.3,15.3c-3,0-5.9-0.9-8.2-2.5c0.5,0.1,0.9,0.1,1.3,0.1
		c2.6,0,4.8-0.9,6.7-2.3c-2.4-0.1-4.4-1.6-5-3.7c0.4,0.1,0.7,0.1,1,0.1c0.5,0,0.9-0.1,1.4-0.2c-2.5-0.5-4.4-2.6-4.4-5.3v-0.1
		c0.8,0.4,1.5,0.7,2.5,0.7c-1.4-0.9-2.4-2.6-2.4-4.4c0-1,0.3-1.9,0.8-2.7c2.6,3.3,6.6,5.4,11.1,5.7c-0.1-0.4-0.1-0.9-0.1-1.2
		c0-2.9,2.4-5.4,5.4-5.4c1.5,0,2.9,0.7,4,1.7c1.2-0.2,2.4-0.7,3.4-1.3c-0.4,1.2-1.2,2.3-2.4,2.9c1-0.1,2.2-0.4,3.1-0.9
		C-254.7,413.8-255.6,414.8-256.7,415.5z"/>
</g>
<text transform="matrix(1 0 0 1 -463.3089 863.67)" style="fill:#3B3B3B; font-family:'FontAwesome'; font-size:18px;"></text>
</svg>
